#!OML:ASF H:\Dans Jumps\Project 1\Capture day 1\Session 1\subject.ASF
:FULLY-SPECIFIED
:DEGREES
451
root 0.525018 16.9656 -2.62027 8.42503 0.336209 -1.75029
lowerback 4.61508 -0.904608 -0.67966
upperback 6.12541 -1.2791 2.30393
thorax 3.80688 -0.724304 2.77729
lowerneck -12.8522 0.766264 -0.746284
upperneck 33.5916 1.72661 -1.25194
head 13.4667 0.483682 -0.106014
rclavicle -1.49089e-015 -1.25234e-014
rhumerus -17.4541 -13.8154 -83.7821
rradius 23.3327
rwrist 32.2485
rhand -21.3409 -25.3142
rfingers 7.12502
rthumb 5.04515 -55.2341
lclavicle -1.49089e-015 -1.25234e-014
lhumerus -13.6447 -8.65652 91.4901
lradius 18.3859
lwrist 6.91195
lhand -27.5601 -6.10002
lfingers 7.12502
lthumb -0.961054 23.8776
rfemur -28.6979 -4.11918 20.5564
rtibia 44.2427
rfoot -20.4216 -9.52638
rtoes 4.65261
lfemur -30.6351 7.69072 -17.7715
ltibia 42.2395
lfoot -19.2757 -0.871166
ltoes -0.495088
452
root 0.523502 16.9654 -2.61902 8.4292 0.356215 -1.74227
lowerback 4.62482 -0.906546 -0.680299
upperback 6.12367 -1.28175 2.311
thorax 3.79996 -0.725746 2.78518
lowerneck -12.837 0.766512 -0.761662
upperneck 33.5914 1.72965 -1.24761
head 13.4631 0.483822 -0.101191
rclavicle -5.06901e-015 2.16675e-014
rhumerus -17.4454 -13.7995 -83.775
rradius 23.3207
rwrist 32.2367
rhand -21.3405 -25.3239
rfingers 7.12502
rthumb 5.04554 -55.2438
lclavicle -5.06901e-015 2.16675e-014
lhumerus -13.659 -8.6395 91.4938
lradius 18.3683
lwrist 6.88841
lhand -27.559 -6.12873
lfingers 7.12502
lthumb -0.960022 23.8489
rfemur -28.6974 -4.1158 20.5536
rtibia 44.2482
rfoot -20.4293 -9.5601
rtoes 4.61936
lfemur -30.6394 7.69822 -17.7756
ltibia 42.2412
lfoot -19.2825 -0.904802
ltoes -0.478182
453
root 0.521932 16.9652 -2.61774 8.43291 0.375104 -1.73217
lowerback 4.63462 -0.908522 -0.684195
upperback 6.12182 -1.28449 2.31722
thorax 3.79296 -0.727345 2.79404
lowerneck -12.8183 0.766507 -0.779602
upperneck 33.5864 1.73176 -1.24007
head 13.4566 0.48372 -0.0948024
rclavicle 1.28216e-014 -1.51076e-014
rhumerus -17.4364 -13.7807 -83.7684
rradius 23.3052
rwrist 32.2245
rhand -21.3431 -25.3345
rfingers 7.12502
rthumb 5.04303 -55.2544
lclavicle 1.28216e-014 -1.51076e-014
lhumerus -13.6743 -8.62919 91.4971
lradius 18.3504
lwrist 6.88095
lhand -27.5556 -6.15437
lfingers 7.12502
lthumb -0.956675 23.8232
rfemur -28.6971 -4.11253 20.5483
rtibia 44.2558
rfoot -20.44 -9.59136
rtoes 4.58271
lfemur -30.6434 7.70715 -17.7817
ltibia 42.2448
lfoot -19.2906 -0.941553
ltoes -0.450296
454
root 0.520315 16.9648 -2.61643 8.43689 0.393872 -1.72097
lowerback 4.64269 -0.910754 -0.689208
upperback 6.1203 -1.28758 2.32256
thorax 3.7873 -0.729159 2.80259
lowerneck -12.7951 0.765879 -0.800493
upperneck 33.5759 1.73193 -1.22777
head 13.4466 0.48311 -0.0863243
rclavicle -4.57205e-015 2.98177e-015
rhumerus -17.4271 -13.7653 -83.7618
rradius 23.2866
rwrist 32.2209
rhand -21.3329 -25.3472
rfingers 7.12502
rthumb 5.05296 -55.2669
lclavicle -4.57205e-015 2.98177e-015
lhumerus -13.6909 -8.61947 91.4995
lradius 18.3354
lwrist 6.88484
lhand -27.5441 -6.17317
lfingers 7.12502
lthumb -0.945584 23.8045
rfemur -28.6977 -4.11036 20.5418
rtibia 44.2656
rfoot -20.453 -9.61944
rtoes 4.54758
lfemur -30.6487 7.71639 -17.7893
ltibia 42.2504
lfoot -19.2995 -0.977699
ltoes -0.418561
455
root 0.518831 16.9645 -2.61462 8.43169 0.41323 -1.71219
lowerback 4.6581 -0.910761 -0.68919
upperback 6.12226 -1.2876 2.32704
thorax 3.78085 -0.729232 2.80749
lowerneck -12.773 0.76314 -0.816166
upperneck 33.5584 1.72792 -1.21671
head 13.4338 0.481274 -0.079857
rclavicle 9.0447e-015 -2.16675e-014
rhumerus -17.4136 -13.7712 -83.753
rradius 23.2606
rwrist 32.2338
rhand -21.3122 -25.3604
rfingers 7.12502
rthumb 5.07287 -55.2797
lclavicle 9.0447e-015 -2.16675e-014
lhumerus -13.7084 -8.62495 91.5035
lradius 18.323
lwrist 6.89851
lhand -27.5322 -6.19021
lfingers 7.12502
lthumb -0.934071 23.7875
rfemur -28.6864 -4.10946 20.5367
rtibia 44.2759
rfoot -20.4681 -9.64631
rtoes 4.50724
lfemur -30.6424 7.72461 -17.7929
ltibia 42.2577
lfoot -19.3125 -1.01276
ltoes -0.385122
456
root 0.517287 16.964 -2.6129 8.42745 0.434568 -1.70507
lowerback 4.67114 -0.911516 -0.68786
upperback 6.12462 -1.28862 2.33205
thorax 3.77618 -0.729782 2.81216
lowerneck -12.7577 0.759751 -0.831396
upperneck 33.5447 1.72254 -1.20425
head 13.4242 0.478998 -0.0730976
rclavicle 7.7526e-015 4.17448e-015
rhumerus -17.4014 -13.7799 -83.7433
rradius 23.237
rwrist 32.2544
rhand -21.2956 -25.3674
rfingers 7.12502
rthumb 5.08891 -55.2863
lclavicle 7.7526e-015 4.17448e-015
lhumerus -13.7269 -8.63438 91.5072
lradius 18.3122
lwrist 6.9122
lhand -27.519 -6.18924
lfingers 7.12502
lthumb -0.921399 23.7885
rfemur -28.6776 -4.11105 20.5343
rtibia 44.2881
rfoot -20.481 -9.67433
rtoes 4.47538
lfemur -30.6396 7.73269 -17.7947
ltibia 42.2683
lfoot -19.3272 -1.04819
ltoes -0.354153
457
root 0.515696 16.9634 -2.61118 8.42377 0.459151 -1.70194
lowerback 4.68104 -0.912627 -0.681634
upperback 6.12726 -1.29007 2.33803
thorax 3.7735 -0.730382 2.81504
lowerneck -12.7344 0.754581 -0.854354
upperneck 33.5234 1.71317 -1.1823
head 13.4093 0.475392 -0.061866
rclavicle 1.71949e-014 -1.66979e-014
rhumerus -17.394 -13.7891 -83.7321
rradius 23.2209
rwrist 32.278
rhand -21.2741 -25.369
rfingers 7.12502
rthumb 5.10965 -55.2874
lclavicle 1.71949e-014 -1.66979e-014
lhumerus -13.7493 -8.65562 91.5125
lradius 18.306
lwrist 6.92837
lhand -27.5145 -6.18724
lfingers 7.12502
lthumb -0.917018 23.7905
rfemur -28.6706 -4.11603 20.5372
rtibia 44.3023
rfoot -20.4937 -9.70158
rtoes 4.4484
lfemur -30.6399 7.74082 -17.7918
ltibia 42.2831
lfoot -19.3446 -1.08548
ltoes -0.330207
458
root 0.513955 16.9625 -2.60969 8.42409 0.486303 -1.70101
lowerback 4.68698 -0.915057 -0.674437
upperback 6.12854 -1.29328 2.34512
thorax 3.77172 -0.731847 2.8185
lowerneck -12.7189 0.750122 -0.873199
upperneck 33.5099 1.70523 -1.16403
head 13.3995 0.472306 -0.0525721
rclavicle -4.27387e-015 4.77083e-015
rhumerus -17.3897 -13.7957 -83.7206
rradius 23.2112
rwrist 32.3019
rhand -21.2626 -25.362
rfingers 7.12502
rthumb 5.12078 -55.2802
lclavicle -4.27387e-015 4.77083e-015
lhumerus -13.7731 -8.67587 91.5174
lradius 18.2999
lwrist 6.93475
lhand -27.5153 -6.18244
lfingers 7.12502
lthumb -0.917815 23.7953
rfemur -28.6711 -4.12232 20.5441
rtibia 44.3204
rfoot -20.5061 -9.7308
rtoes 4.42768
lfemur -30.6493 7.75115 -17.7868
ltibia 42.3036
lfoot -19.3641 -1.12651
ltoes -0.306502
459
root 0.512125 16.9615 -2.60851 8.42956 0.514829 -1.70053
lowerback 4.68919 -0.91922 -0.668036
upperback 6.12689 -1.29882 2.35305
thorax 3.76913 -0.734489 2.82324
lowerneck -12.7127 0.74738 -0.887848
upperneck 33.5095 1.70048 -1.15
head 13.3977 0.470368 -0.0451849
rclavicle -2.88238e-015 4.57205e-015
rhumerus -17.3938 -13.7842 -83.7101
rradius 23.2143
rwrist 32.3074
rhand -21.2525 -25.3649
rfingers 7.12502
rthumb 5.13052 -55.2827
lclavicle -2.88238e-015 4.57205e-015
lhumerus -13.8002 -8.69262 91.5225
lradius 18.2952
lwrist 6.93324
lhand -27.5228 -6.17378
lfingers 7.12502
lthumb -0.925055 23.804
rfemur -28.6811 -4.1297 20.5526
rtibia 44.3425
rfoot -20.5183 -9.76033
rtoes 4.41288
lfemur -30.6686 7.76397 -17.7818
ltibia 42.3291
lfoot -19.3858 -1.17276
ltoes -0.282297
460
root 0.510189 16.9602 -2.60752 8.43949 0.544581 -1.69976
lowerback 4.68777 -0.924836 -0.66266
upperback 6.1229 -1.30628 2.36074
thorax 3.76625 -0.738108 2.82828
lowerneck -12.7065 0.746522 -0.899039
upperneck 33.5124 1.69902 -1.14021
head 13.3974 0.469686 -0.0395965
rclavicle 1.64991e-014 -9.93923e-016
rhumerus -17.4016 -13.7741 -83.6995
rradius 23.2211
rwrist 32.3159
rhand -21.2419 -25.3644
rfingers 7.12502
rthumb 5.14076 -55.2821
lclavicle 1.64991e-014 -9.93923e-016
lhumerus -13.8264 -8.70958 91.5263
lradius 18.2879
lwrist 6.92414
lhand -27.5298 -6.16522
lfingers 7.12502
lthumb -0.931794 23.8125
rfemur -28.6989 -4.13763 20.5618
rtibia 44.3684
rfoot -20.5309 -9.79098
rtoes 4.4029
lfemur -30.6966 7.78005 -17.7779
ltibia 42.3599
lfoot -19.409 -1.22376
ltoes -0.257403
461
root 0.508256 16.959 -2.6066 8.45082 0.575391 -1.69579
lowerback 4.6867 -0.930935 -0.660121
upperback 6.11749 -1.31438 2.36716
thorax 3.76175 -0.742102 2.83363
lowerneck -12.7045 0.747006 -0.904086
upperneck 33.5196 1.70003 -1.13637
head 13.4 0.469996 -0.0370482
rclavicle 6.16232e-015 -1.35174e-014
rhumerus -17.4106 -13.7633 -83.6893
rradius 23.2311
rwrist 32.319
rhand -21.2406 -25.3655
rfingers 7.12502
rthumb 5.14201 -55.2831
lclavicle 6.16232e-015 -1.35174e-014
lhumerus -13.8501 -8.72473 91.5292
lradius 18.2786
lwrist 6.9062
lhand -27.524 -6.13637
lfingers 7.12502
lthumb -0.926198 23.8414
rfemur -28.7194 -4.14762 20.5676
rtibia 44.3966
rfoot -20.5437 -9.82238
rtoes 4.39134
lfemur -30.7271 7.79766 -17.7783
ltibia 42.3924
lfoot -19.4335 -1.27757
ltoes -0.238204
462
root 0.506228 16.9575 -2.6061 8.46796 0.608732 -1.6987
lowerback 4.68573 -0.938093 -0.651071
upperback 6.10834 -1.32374 2.37549
thorax 3.75323 -0.746437 2.83732
lowerneck -12.7038 0.748719 -0.906343
upperneck 33.531 1.70309 -1.13526
head 13.4048 0.471132 -0.035758
rclavicle 4.57205e-015 -1.59028e-014
rhumerus -17.4231 -13.7511 -83.6803
rradius 23.2443
rwrist 32.3151
rhand -21.2343 -25.3741
rfingers 7.12502
rthumb 5.14817 -55.2915
lclavicle 4.57205e-015 -1.59028e-014
lhumerus -13.8711 -8.73467 91.5311
lradius 18.2677
lwrist 6.88607
lhand -27.507 -6.09571
lfingers 7.12502
lthumb -0.909761 23.8821
rfemur -28.7489 -4.15562 20.5822
rtibia 44.4262
rfoot -20.5538 -9.85606
rtoes 4.38458
lfemur -30.7676 7.81723 -17.7717
ltibia 42.4259
lfoot -19.4558 -1.33626
ltoes -0.216116
463
root 0.504478 16.9563 -2.60511 8.47561 0.643303 -1.69617
lowerback 4.69476 -0.943584 -0.642857
upperback 6.10236 -1.33079 2.3806
thorax 3.74223 -0.749576 2.83827
lowerneck -12.7128 0.749815 -0.899076
upperneck 33.5439 1.70524 -1.14097
head 13.4125 0.472131 -0.0389106
rclavicle -3.67752e-015 1.23246e-014
rhumerus -17.4315 -13.7559 -83.6706
rradius 23.251
rwrist 32.3165
rhand -21.2322 -25.3818
rfingers 7.12502
rthumb 5.15014 -55.2992
lclavicle -3.67752e-015 1.23246e-014
lhumerus -13.8881 -8.75105 91.5334
lradius 18.2567
lwrist 6.86252
lhand -27.4854 -6.05835
lfingers 7.12502
lthumb -0.888854 23.9195
rfemur -28.7651 -4.1688 20.5887
rtibia 44.4556
rfoot -20.5661 -9.88871
rtoes 4.36533
lfemur -30.7931 7.83444 -17.7708
ltibia 42.4566
lfoot -19.4813 -1.39453
ltoes -0.195399
464
root 0.502738 16.9552 -2.60406 8.48214 0.678204 -1.69078
lowerback 4.70481 -0.948849 -0.636834
upperback 6.09721 -1.33754 2.38439
thorax 3.73153 -0.752636 2.83911
lowerneck -12.7258 0.750217 -0.892128
upperneck 33.5592 1.70608 -1.14517
head 13.4221 0.472674 -0.0415943
rclavicle -3.97569e-016 7.95139e-016
rhumerus -17.4404 -13.7637 -83.661
rradius 23.2585
rwrist 32.3186
rhand -21.2361 -25.3857
rfingers 7.12502
rthumb 5.14639 -55.3032
lclavicle -3.97569e-016 7.95139e-016
lhumerus -13.8994 -8.76591 91.5349
lradius 18.2425
lwrist 6.83532
lhand -27.4679 -6.02452
lfingers 7.12502
lthumb -0.872009 23.9534
rfemur -28.7797 -4.18339 20.5918
rtibia 44.485
rfoot -20.5776 -9.92154
rtoes 4.3427
lfemur -30.8157 7.85246 -17.7735
ltibia 42.4844
lfoot -19.5061 -1.45533
ltoes -0.169701
